<svg width="31" height="28" viewBox="0 0 31 28" fill="none" xmlns="http://www.w3.org/2000/svg">
<path d="M28.0696 1.30156C27.9533 1.18562 27.7862 1.12 27.6118 1.12H3.38823C3.21386 1.12 3.04675 1.18562 2.9305 1.30156C2.81183 1.4175 2.7537 1.57281 2.77065 1.73031L4.95276 23.8087C4.97456 24.0406 5.15378 24.2331 5.40081 24.2987L15.3281 26.8581C15.3814 26.8734 15.4395 26.88 15.4976 26.88C15.5557 26.88 15.6114 26.8734 15.6671 26.8581L25.6017 24.2987C25.8487 24.2331 26.0255 24.0406 26.0497 23.8087L28.2294 1.73031C28.2464 1.57281 28.1882 1.4175 28.0696 1.30156ZM22.8456 8.91406H11.1818L11.4603 11.7644H22.5646L21.7315 20.1884L15.4952 21.8903L15.4346 21.8728L9.27097 20.1862L8.93433 16.7541H11.9544L12.0852 18.0862L15.5315 18.7381L18.9149 18.0862L19.2757 14.4812H8.70909L7.88808 6.19062H23.1144L22.8456 8.91406Z" fill="url(#paint0_linear_12_160)"/>
<defs>
<linearGradient id="paint0_linear_12_160" x1="15.5" y1="1.12" x2="15.5" y2="26.88" gradientUnits="userSpaceOnUse">
<stop/>
<stop offset="1" stop-color="#666666"/>
</linearGradient>
</defs>
</svg>
