<svg width="31" height="28" viewBox="0 0 31 28" fill="none" xmlns="http://www.w3.org/2000/svg">
<path d="M29.0337 0H1.96922C0.882253 0 0 0.796874 0 1.77865V26.2214C0 27.2031 0.882253 28 1.96922 28H29.0308C30.1177 28 31 27.2031 31 26.224V1.77865C31 0.796874 30.1177 0 29.0337 0ZM16.9762 21.4557C16.9762 24.1198 15.2463 25.3333 12.7206 25.3333C10.4371 25.3333 8.79083 23.9505 8.11905 22.6667L10.44 21.3984C10.8869 22.1146 11.5673 22.6667 12.5476 22.6667C13.4847 22.6667 14.0238 22.3359 14.0238 21.0495V12.6667H16.9762L16.9762 21.4557ZM23.3797 25.3333C20.7647 25.3333 19.2799 24.1432 18.4524 22.6667L20.6667 21.3333C21.2693 22.224 21.9266 23.0755 23.3163 23.0755C24.484 23.0755 25.0952 22.5495 25.0952 21.8203C25.0952 20.9505 24.4609 20.6406 23.1779 20.1328L22.4744 19.8594C20.4418 19.0781 19.0896 18.099 19.0896 16.026C19.0896 14.1198 20.7013 12.6667 23.2154 12.6667C25.0059 12.6667 26.2918 13.2292 27.2201 14.7031L25.0289 15.9766C24.5445 15.1927 24.0256 14.8854 23.2154 14.8854C22.3908 14.8854 21.8689 15.3594 21.8689 15.9766C21.8689 16.7396 22.3908 17.0469 23.5989 17.5208L24.3024 17.7943C26.6983 18.7188 28.0476 19.6641 28.0476 21.7891C28.0476 24.0781 26.0553 25.3333 23.3797 25.3333Z" fill="url(#paint0_linear_12_170)"/>
<defs>
<linearGradient id="paint0_linear_12_170" x1="15.5" y1="0" x2="15.5" y2="28" gradientUnits="userSpaceOnUse">
<stop/>
<stop offset="1" stop-color="#666666"/>
</linearGradient>
</defs>
</svg>
