<svg width="52" height="42" viewBox="0 0 52 42" fill="none" xmlns="http://www.w3.org/2000/svg">
<path d="M6.81108 8.54545L12.9634 27.8849H13.1996L19.3643 8.54545H25.3303L16.5554 34H9.62003L0.832742 8.54545H6.81108ZM49.4176 17.457H43.9737C43.8743 16.7527 43.6713 16.1271 43.3647 15.5803C43.0581 15.0251 42.6645 14.5528 42.1839 14.1634C41.7034 13.7739 41.1482 13.4756 40.5185 13.2685C39.897 13.0613 39.2217 12.9577 38.4925 12.9577C37.1751 12.9577 36.0275 13.285 35.0497 13.9396C34.072 14.5859 33.3138 15.5305 32.7752 16.7734C32.2366 18.008 31.9673 19.5078 31.9673 21.2727C31.9673 23.0874 32.2366 24.612 32.7752 25.8466C33.3221 27.0812 34.0844 28.0134 35.0621 28.6431C36.0399 29.2728 37.1709 29.5877 38.4553 29.5877C39.1761 29.5877 39.8432 29.4924 40.4563 29.3018C41.0778 29.1113 41.6288 28.8337 42.1094 28.4691C42.59 28.0962 42.9877 27.6446 43.3026 27.1143C43.6257 26.584 43.8494 25.9792 43.9737 25.2997L49.4176 25.3246C49.2768 26.4929 48.9246 27.6198 48.3612 28.7053C47.806 29.7824 47.0561 30.7478 46.1115 31.6012C45.1752 32.4464 44.0566 33.1175 42.7557 33.6147C41.4631 34.1036 40.0006 34.348 38.3683 34.348C36.0979 34.348 34.0678 33.8343 32.2781 32.8068C30.4966 31.7794 29.0879 30.292 28.0522 28.3448C27.0247 26.3976 26.511 24.0402 26.511 21.2727C26.511 18.4969 27.033 16.1354 28.0771 14.1882C29.1211 12.241 30.538 10.7578 32.3278 9.73864C34.1175 8.71117 36.131 8.19744 38.3683 8.19744C39.8432 8.19744 41.2103 8.40459 42.4698 8.81889C43.7376 9.23319 44.8603 9.83807 45.8381 10.6335C46.8158 11.4207 47.6113 12.386 48.2244 13.5295C48.8459 14.6729 49.2436 15.9821 49.4176 17.457Z" fill="#151515"/>
<path d="M24.5955 5.3982C24.2632 4.79312 23.5032 4.57204 22.8981 4.90441L13.0378 10.3207C12.4327 10.6531 12.2116 11.413 12.544 12.0181C12.8764 12.6232 13.6363 12.8442 14.2414 12.5119L23.0062 7.69741L27.8206 16.4622C28.153 17.0672 28.9129 17.2883 29.518 16.956C30.1231 16.6236 30.3442 15.8636 30.0118 15.2585L24.5955 5.3982ZM15.5 33.5L16.7002 33.8492L24.7002 6.34917L23.4999 6.00001L22.2997 5.65085L14.2998 33.1508L15.5 33.5Z" fill="#151515"/>
<line x1="18.416" y1="15.376" x2="27.416" y2="21.376" stroke="#151515" stroke-width="1.5"/>
<line x1="27.3642" y1="21.6556" x2="18.3642" y2="26.6556" stroke="#151515" stroke-width="1.5"/>
</svg>
